<svg version="1.2" xmlns="http://www.w3.org/2000/svg" viewBox="0 0 47 45" width="150" height="144">
	<title>Asset 11-svg</title>
	<style>
		.s0 { fill: #edc1ab } 
		.s1 { fill: #8e1c1e } 
	</style>
	<g id="Layer_1-2">
		<path id="Layer" class="s0" d="m46.5 22.3c0 2.3-3.1 4.1-3.8 6.3-0.7 2.1 0.7 5.5-0.6 7.3-1.3 1.9-5 1.5-6.8 2.9-1.9 1.3-2.6 4.9-4.8 5.6-2.2 0.7-4.9-1.7-7.2-1.7-2.4 0-5.1 2.4-7.2 1.7-2.2-0.7-3-4.3-4.8-5.6-1.8-1.4-5.5-1-6.8-2.9-1.4-1.8 0.1-5.1-0.6-7.3-0.7-2.2-3.9-4-3.9-6.3 0-2.4 3.2-4.2 3.9-6.3 0.7-2.2-0.8-5.6 0.6-7.4 1.3-1.9 5-1.5 6.8-2.8 1.9-1.4 2.6-5 4.8-5.7 2.2-0.7 4.8 1.8 7.2 1.8 2.3 0 5-2.5 7.2-1.8 2.1 0.7 2.9 4.3 4.8 5.7 1.8 1.3 5.4 0.9 6.8 2.8 1.3 1.8-0.1 5.1 0.6 7.4 0.7 2.1 3.8 3.9 3.8 6.3z"/>
		<path id="Layer" fill-rule="evenodd" class="s1" d="m9.6 27.3q-0.5-0.4-0.7-1c-0.3-0.7-0.2-1.3 0.2-1.9 0.1-0.2 0.3-0.4 0.5-0.6q0-0.1 0-0.1 1.5-1.5 3-3 0.6-0.6 1.2-1.2 0.5-0.4 0.9-0.9 0.4-0.4 0.9-0.8 0.6-0.6 1.2-1.2 1.1-1.1 2.2-2.2 0.8-0.9 1.7-1.7 0.1-0.1 0.2-0.2c0.1 0.1 0.1 0 0.1-0.1q0 0 0.1-0.1c0 0.1 0 0.1 0.1 0q0.2-0.2 0.5-0.4 0.4-0.3 0.8-0.6 0-0.1 0.1-0.1 0.2-0.1 0.3-0.2 0.1 0 0.1 0c0.4-0.1 0.7-0.2 1.1 0q0.5 0.2 0.9 0.4 0.1 0.1 0.2 0.2 0.2 0.2 0.5 0.4 0.1 0 0.1 0.1 0.4 0.3 0.7 0.7 0 0 0 0 0.1 0 0.1 0.1 0 0 0.1 0 0 0.1 0.1 0.2 0.1 0 0.1 0.1 0 0 0.1 0 0 0 0 0.1 0 0 0.1 0 0 0.1 0 0.1 0.1 0 0.1 0c0 0.1 0.1 0.1 0.1 0.1q0 0.1 0.1 0.1 0 0.1 0 0.1 0.1 0 0.1 0.1 0 0 0.1 0 0 0.1 0 0.1 0 0 0.1 0 0 0.1 0 0.1 0.1 0 0.1 0.1 0 0 0.1 0 0 0.1 0 0.1 0 0 0.1 0c0 0.1 0.1 0.2 0.1 0.2q0 0 0.1 0 0 0.1 0 0.1 0 0 0.1 0 0 0.1 0 0.1 0.1 0 0.1 0.1 0 0 0 0 0.1 0.1 0.1 0.1 0.1 0 0.1 0 0.1 0.1 0.2 0.1 1.1 1.2 2.3 2.3 0.7 0.7 1.4 1.4 0.1 0 0.1 0.1 0.1 0 0.1 0.1 1.1 1 2.1 2 0.5 0.5 0.9 1 0.7 0.7 1.4 1.3 0 0.1 0 0.1c0.5 0.4 0.9 0.9 1.2 1.5 0.1 0.2 0.2 0.4 0.2 0.6q0.1 0.3 0 0.6c0 0.3-0.1 0.6-0.3 0.8-0.4 0.7-1.1 1-1.8 1.2q-0.3 0-0.6 0.1-0.2 0-0.4 0-3.7 0-7.4 0-0.2 0-0.4 0c-0.1-0.1-0.2-0.1-0.3-0.1q-0.3-0.4-0.6-0.7-0.7-0.7-1.4-1.4-0.8-0.8-1.6-1.6 0 0 0-0.1 0.2 0 0.3 0 0.1 0 0.2 0 2.6 0 5.3 0 0.4 0 0.9 0 0.3 0 0.7-0.1c0-0.1 0.1-0.2 0.2-0.3 0.2-0.2 0.1-0.5 0-0.7-0.1-0.3-0.3-0.5-0.5-0.7q-0.7-0.7-1.4-1.4-0.6-0.7-1.3-1.3 0.1 0 0 0-0.3-0.3-0.6-0.7-0.8-0.7-1.5-1.4-0.3-0.3-0.6-0.6-0.4-0.4-0.7-0.7c0 0-0.1-0.1-0.1-0.1-0.2-0.1-0.3-0.3-0.4-0.4q-0.6-0.3-1.1 0.1c-0.2 0.1-0.3 0.3-0.5 0.4q-0.3 0.3-0.5 0.5-1.4 1.4-2.8 2.9-1.5 1.4-2.9 2.8-0.3 0.3-0.5 0.7c-0.1 0.4 0.1 0.7 0.4 0.9 0.3 0.1 0.6 0.1 0.8 0.1q0.1 0 0.2 0 2.2 0 4.5 0 0.7 0 1.5 0 0.2 0 0.3 0-0.2 0.2-0.3 0.4-0.1 0-0.1 0.1-0.3 0.3-0.6 0.6-0.7 0.6-1.3 1.3-0.6 0.7-1.2 1.3-0.1 0-0.2 0.1c0 0.1-0.1 0-0.2 0q-0.2 0-0.4 0-3.7 0-7.5 0-0.2 0-0.3 0-1 0-1.8-0.6zm28.7-1.2c0 0 0 0.1-0.1 0.2q-0.1 0.4-0.4 0.6 0.3-0.2 0.4-0.6c0.1-0.1 0.1-0.2 0.1-0.2zm-13.8-10.1q0 0 0 0 0-0.1 0-0.1 0 0 0 0.1zm0.1 0q0 0 0 0 0 0 0 0zm-0.1 0q0-0.1 0.1 0 0 0-0.1 0zm-15.3 8.4q0.1-0.1 0.1-0.2 0 0.1-0.1 0.2z"/>
		<path id="Layer" class="s1" d="m39.2 28.6q-0.2 0.2-0.4 0.5-0.1 0-0.1 0-0.5 0.4-0.9 0.8-0.3 0.2-0.6 0.4c-0.4 0.2-0.8 0.3-1.3 0.3q0 0-0.1 0-12.1 0-24.3 0-0.1 0-0.1 0c-0.2 0-0.5 0-0.7 0-0.6-0.2-1.1-0.6-1.6-1q-0.5-0.5-1.1-1 0 0-0.1 0 0.4 0.7 0.8 1.4c0.3 0.5 0.6 1 1.1 1.4 0.3 0.4 0.7 0.5 1.2 0.6q0.3 0 0.7 0.1 0.1 0 0.1-0.1 0.5 0 1 0 10.5 0 20.9 0 0.7 0 1.4 0 0 0.1 0.1 0.1 0 0 0 0 0 0 0-0.1 0.2 0 0.4 0.1 0.1 0 0.1 0 0.2 0 0.5-0.1 1-0.1 1.6-0.9c0.3-0.5 0.6-1 0.9-1.5q0.1-0.1 0.2-0.3 0.2-0.3 0.4-0.7-0.1 0-0.1 0z"/>
		<path id="Layer" fill-rule="evenodd" class="s1" d="m25.4 22.9q0.4-0.4 0.5-1 0-0.3 0-0.5c0-0.2 0-0.3-0.1-0.5-0.3-0.8-0.9-1.4-1.8-1.6-0.6 0-1.1 0-1.6 0.3-0.2 0.2-0.4 0.4-0.6 0.6-0.4 0.5-0.6 1-0.4 1.7q0 0.7 0.6 1.2c0.6 0.7 1.4 1 2.3 0.7q0.7-0.3 1.2-0.8zm-4.1-1.1q0.1 0.2 0.2 0.3-0.1-0.1-0.2-0.3z"/>
	</g>
</svg>