<svg version="1.2" xmlns="http://www.w3.org/2000/svg" viewBox="0 0 47 45" width="150" height="144">
	<title>Asset 8-svg</title>
	<style>
		.s0 { fill: #edc1ab } 
		.s1 { fill: #8e1c1e } 
	</style>
	<g id="Layer_1-2">
		<path id="Layer" class="s0" d="m46.5 22.3c0 2.3-3.1 4.1-3.8 6.3-0.7 2.1 0.7 5.5-0.6 7.3-1.3 1.9-5 1.5-6.8 2.9-1.9 1.3-2.6 4.9-4.8 5.6-2.2 0.7-4.9-1.7-7.2-1.7-2.4 0-5.1 2.4-7.2 1.7-2.2-0.7-3-4.3-4.8-5.6-1.8-1.4-5.5-1-6.8-2.9-1.4-1.8 0.1-5.1-0.6-7.3-0.7-2.2-3.9-4-3.9-6.3 0-2.4 3.2-4.2 3.9-6.3 0.7-2.2-0.8-5.6 0.6-7.4 1.3-1.9 5-1.5 6.8-2.8 1.8-1.4 2.6-5 4.8-5.7 2.2-0.7 4.8 1.8 7.2 1.8 2.3 0 5-2.5 7.2-1.8 2.1 0.7 2.9 4.3 4.8 5.7 1.8 1.3 5.4 0.9 6.8 2.8 1.3 1.8-0.1 5.1 0.6 7.4 0.7 2.1 3.8 3.9 3.8 6.3z"/>
		<path id="Layer" class="s1" d="m19.5 13.6c-2.3 0-4.1-0.8-4.1-1.7 0-0.9 1.8-1.6 4.1-1.6 2.3 0 4.2 0.7 4.2 1.6 0 0.9-1.9 1.7-4.2 1.7z"/>
		<path id="Layer" class="s1" d="m19.5 27.6c4.2-1.5 7.2-5.1 8-9.4l0.3-1.5-0.4-0.2q-0.6-0.3-1.2-0.7-0.5 1.3-1.6 2.4c0.5 0.5 0.4 1.3-0.2 1.7-0.5 0.4-1.3 0.3-1.7-0.2q0 0 0 0-0.6 0.3-1.2 0.5 0.1 0.4 0.1 0.8c0 1.4-0.9 2.5-2.1 2.5-1.1 0-2.1-1.1-2.1-2.5q0-0.4 0.2-0.8-0.6-0.2-1.2-0.5c-0.4 0.5-1.2 0.7-1.8 0.3-0.5-0.4-0.6-1.2-0.2-1.8q0 0 0 0-1-1.1-1.6-2.4-0.5 0.4-1.2 0.7l-0.3 0.2 0.2 1.5c0.8 4.3 3.9 7.9 8 9.4z"/>
		<path id="Layer" class="s1" d="m19.8 31q0.3 0 0.6-0.2v-2.6q-0.4 0.1-0.7 0.2-0.2 0.1-0.3 0-0.4-0.1-0.7-0.2v2.6q0.3 0.2 0.6 0.2c0 0 0.5 0 0.5 0z"/>
		<path id="Layer" class="s1" d="m17.9 31c-2.1 0.2-3.1 0.6-3.3 0.8 0.3 0.3 2.1 0.8 4.9 0.8 2.9 0 4.7-0.5 5-0.8-0.2-0.2-1.2-0.6-3.3-0.8q0 0.2-0.1 0.3c-0.4 0.3-0.8 0.5-1.3 0.5h-0.5c-0.5 0-1-0.2-1.3-0.6q-0.1 0-0.1-0.2z"/>
		<path id="Layer" class="s1" d="m14.6 32.7v0.7c0.2 0.3 2 0.9 4.9 0.9 3 0 4.8-0.6 5-0.9v-0.7c-1.5 0.7-4.5 0.7-5 0.7-0.4 0-3.5 0-4.9-0.7z"/>
		<path id="Layer" class="s1" d="m19.5 22.7c-0.7 0-1.2-0.8-1.2-1.7 0-0.9 0.5-1.6 1.2-1.6 0.7 0 1.3 0.7 1.3 1.6 0 0.9-0.6 1.7-1.3 1.7z"/>
		<path id="Layer" class="s1" d="m15.4 17.7c0.6 0 1.2 0.5 1.2 1.2q0.6 0.3 1.3 0.6c0.4-0.6 1-0.9 1.6-1 0.7 0.1 1.3 0.4 1.6 1q0.7-0.3 1.3-0.6c0.1-0.7 0.6-1.2 1.3-1.2q0.1 0 0.2 0c0.7-0.7 1.3-1.5 1.7-2.5q-1-1-1.6-2.2c-0.7 0.8-2.4 1.4-4.5 1.4-2 0-3.7-0.6-4.5-1.4q-0.5 1.2-1.5 2.2c0.4 1 0.9 1.8 1.6 2.5q0.2 0 0.3 0z"/>
		<path id="Layer" class="s1" d="m23.7 19.4c-0.3 0-0.4-0.2-0.4-0.4 0-0.3 0.1-0.5 0.4-0.5 0.2 0 0.4 0.2 0.4 0.5 0 0.2-0.2 0.4-0.4 0.4z"/>
		<path id="Layer" class="s1" d="m15.4 19.4c-0.2 0-0.4-0.2-0.4-0.4 0-0.3 0.2-0.5 0.4-0.5 0.2 0 0.4 0.2 0.4 0.5 0 0.2-0.2 0.4-0.4 0.4z"/>
		<path id="Layer" class="s1" d="m29.9 25.2c-0.2 0-0.4-0.4-0.4-0.9 0-0.4 0.2-0.8 0.4-0.8 0.2 0 0.4 0.4 0.4 0.8 0 0.5-0.2 0.9-0.4 0.9z"/>
		<path id="Layer" class="s1" d="m32.4 25.2c-0.3 0-0.4-0.4-0.4-0.9 0-0.4 0.1-0.8 0.4-0.8 0.2 0 0.4 0.4 0.4 0.8 0 0.5-0.2 0.9-0.4 0.9z"/>
		<path id="Layer" fill-rule="evenodd" class="s1" d="m35.1 23.9l-3.6 3.6c-0.2 0.2-0.6 0.2-0.8 0l-3.6-3.6c-0.2-0.2-0.2-0.6 0-0.8l3.6-3.6c0.2-0.2 0.6-0.2 0.8 0l3.6 3.6c0.2 0.2 0.2 0.6 0 0.8zm-2.7 2.1c0.7 0 1.2-0.7 1.2-1.7 0.1-0.6-0.3-1.2-0.8-1.5v-1.4h-0.8v1.4c-0.5 0.3-0.8 0.8-0.9 1.3 0-0.5-0.3-1-0.8-1.3v-1.4h-0.8v1.4c-0.6 0.3-0.9 0.9-0.9 1.5 0 1 0.6 1.7 1.3 1.7 0.7 0 1.2-0.7 1.2-1.7 0 1 0.6 1.7 1.3 1.7zm-1.3-1.7q0-0.1 0-0.2 0 0.1 0 0.2z"/>
		<path id="Layer" class="s1" d="m32.8 31.1q-0.1 0.1-0.1 0.2c-0.4 0.3-0.9 0.5-1.3 0.5h-0.5c-0.5 0-1-0.2-1.3-0.5q-0.1-0.1-0.1-0.2c-1.5 0.2-2.1 0.6-2.1 0.7 0.1 0.2 1.3 0.8 3.7 0.8 2.4 0 3.7-0.6 3.8-0.8-0.1-0.1-0.7-0.5-2.1-0.7z"/>
		<path id="Layer" class="s1" d="m31.4 31q0.3 0 0.6-0.2v-2.6c-0.5 0.4-1.2 0.4-1.7 0v2.6q0.3 0.2 0.6 0.2c0 0 0.5 0 0.5 0z"/>
		<path id="Layer" class="s1" d="m31.1 33.5c-1.4 0-2.8-0.3-3.7-0.7v0.7c0 0.2 1.3 0.8 3.7 0.8 2.4 0 3.7-0.6 3.8-0.8v-0.7c-0.9 0.4-2.4 0.7-3.8 0.7z"/>
	</g>
</svg>