<svg version="1.2" xmlns="http://www.w3.org/2000/svg" viewBox="0 0 47 45" width="150" height="144">
	<title>Asset 7-svg</title>
	<style>
		.s0 { fill: #edc1ab } 
		.s1 { fill: #8e1c1e } 
	</style>
	<g id="Layer_1-2">
		<path id="Layer" class="s0" d="m46.5 22.3c0 2.3-3.1 4.1-3.8 6.3-0.7 2.1 0.7 5.5-0.6 7.3-1.3 1.9-5 1.5-6.8 2.9-1.9 1.3-2.6 4.9-4.8 5.6-2.2 0.7-4.9-1.7-7.2-1.7-2.4 0-5.1 2.4-7.2 1.7-2.2-0.7-3-4.3-4.8-5.6-1.8-1.4-5.5-1-6.8-2.9-1.4-1.8 0.1-5.1-0.6-7.3-0.7-2.2-3.9-4-3.9-6.3 0-2.4 3.2-4.2 3.9-6.3 0.7-2.2-0.8-5.6 0.6-7.4 1.3-1.9 5-1.5 6.8-2.8 1.9-1.4 2.6-5 4.8-5.7 2.2-0.7 4.8 1.8 7.2 1.8 2.3 0 5-2.5 7.2-1.8 2.1 0.7 2.9 4.3 4.8 5.7 1.8 1.3 5.4 0.9 6.8 2.8 1.3 1.8-0.1 5.1 0.6 7.4 0.7 2.1 3.8 3.9 3.8 6.3z"/>
		<path id="Layer" fill-rule="evenodd" class="s1" d="m10.3 26.3q0 0 0 0zm-2.2-0.4v-11.1l4.7 1.4c0 0-2.5 10.1-2.5 10.1zm24.3 0.5c-0.3 0.5-0.9 0.7-1.4 0.4l-0.9-0.5-4.4-2.6c-0.1 0-0.3 0-0.4 0.1 0 0.2 0 0.3 0.1 0.4l4.4 2.5q0.4 0.2 0.5 0.7 0.1 0.4-0.1 0.8c-0.3 0.5-1 0.7-1.5 0.4l-0.4-0.3-3.9-2.2c-0.2-0.1-0.3-0.1-0.4 0.1-0.1 0.1 0 0.2 0.1 0.3l3.9 2.3q0.4 0.2 0.5 0.6 0.1 0.4-0.1 0.8c-0.3 0.5-0.9 0.7-1.4 0.4l-0.5-0.2-3.5-2c-0.1-0.1-0.2-0.1-0.3 0.1-0.1 0.1 0 0.3 0.1 0.3l3.4 2c0.3 0.2 0.5 0.4 0.5 0.7q0.1 0.4-0.1 0.8c-0.3 0.5-0.9 0.7-1.4 0.4l-1.5-0.9c0-0.5-0.3-1.1-0.8-1.4-0.4-0.2-0.8-0.2-1.2-0.1q-0.1 0-0.1 0 0.1-0.3 0-0.7c-0.1-0.4-0.4-0.7-0.8-0.9-0.4-0.3-0.8-0.3-1.2-0.2q0-0.3-0.1-0.7c-0.1-0.4-0.3-0.7-0.7-0.9-0.6-0.4-1.3-0.3-1.8 0.1q0 0 0 0c-0.1-0.4-0.4-0.8-0.8-1-0.6-0.4-1.5-0.2-2 0.4l-3-1.2 1.9-7.7 1.9 0.5c0.9 0.3 1.9 0.3 2.9 0.1l0.9-0.2c0.4-0.1 0.9 0 1.3 0.2l1.3 0.7q-1.5 1.3-3.3 1.9c-0.4 0.1-0.7 0.4-0.8 0.8-0.2 0.4-0.1 0.8 0.1 1.1 0.5 1 1.8 1.3 2.8 0.8l2-1.2 0.4 0.1c1.4 0.6 3 0.5 4.3-0.3l5.1 3q0 0 0.1 0 0.3 0.2 0.5 0.6c0 0.3 0 0.6-0.2 0.8zm-15.4 5.2c-0.3 0-0.6 0-0.9-0.1-0.5-0.3-0.6-1-0.3-1.5l1.3-2.3c0.2-0.3 0.5-0.5 0.9-0.5q0.3 0 0.5 0.1 0.4 0.2 0.5 0.7c0.1 0.2 0.1 0.5-0.1 0.8l-1.3 2.3q-0.2 0.4-0.6 0.5zm2.5 0.8c-0.2 0.1-0.5 0.1-0.8-0.1-0.5-0.3-0.7-0.9-0.4-1.4l0.8-1.4c0.2-0.3 0.6-0.5 0.9-0.5q0.3 0 0.6 0.1 0.4 0.2 0.5 0.7c0 0.2 0 0.5-0.1 0.8l-0.8 1.3q-0.3 0.4-0.7 0.5zm3.5 0l-0.3 0.4c-0.3 0.5-0.9 0.7-1.4 0.4q-0.4-0.2-0.5-0.6-0.1-0.5 0.1-0.9l0.3-0.4q0.2-0.4 0.6-0.5 0.1 0 0.3-0.1 0.3 0.1 0.5 0.2c0.5 0.3 0.7 0.9 0.4 1.4zm-8.1-2.5c-0.3 0-0.5 0-0.8-0.1-0.5-0.3-0.7-1-0.4-1.5l0.8-1.4c0.2-0.3 0.6-0.5 0.9-0.5q0.3 0 0.6 0.1 0.3 0.3 0.5 0.7 0.1 0.4-0.1 0.8l-0.8 1.4q-0.3 0.4-0.7 0.5zm17.3-5.4l-5.2-3q-0.1 0-0.3 0c-1.1 0.8-2.6 0.9-3.9 0.4l-0.5-0.2q-0.1 0-0.2 0l-2.2 1.3c-0.7 0.4-1.7 0.2-2.1-0.6-0.1-0.2-0.1-0.4 0-0.6 0-0.3 0.2-0.4 0.5-0.5q1.9-0.7 3.5-2l1.1-1c0.6-0.5 1.5-0.7 2.2-0.5 1.6 0.5 3.3 0.5 4.9 0l3.6-1 1.8 7.3-3.2 0.4zm6.2 0.4l-2.2 0.5-2.5-10.2 4.7-1.4c0 0 0 11.1 0 11.1z"/>
	</g>
</svg>