<svg version="1.2" xmlns="http://www.w3.org/2000/svg" viewBox="0 0 47 45" width="150" height="144">
	<title>Asset 10-svg</title>
	<style>
		.s0 { fill: #edc1ab } 
		.s1 { fill: #8e1c1e } 
	</style>
	<g id="Layer_1-2">
		<path id="Layer" class="s0" d="m46.5 22.3c0 2.3-3.1 4.1-3.8 6.3-0.7 2.2 0.7 5.5-0.6 7.3-1.3 1.9-5 1.5-6.8 2.9-1.9 1.3-2.6 4.9-4.8 5.6-2.2 0.7-4.9-1.7-7.2-1.7-2.4 0-5.1 2.4-7.2 1.7-2.2-0.7-3-4.3-4.8-5.6-1.8-1.4-5.5-1-6.8-2.9-1.4-1.8 0.1-5.1-0.6-7.3-0.7-2.2-3.9-4-3.9-6.3 0-2.4 3.2-4.2 3.9-6.3 0.7-2.2-0.8-5.6 0.6-7.4 1.3-1.9 5-1.5 6.8-2.8 1.9-1.4 2.6-5 4.8-5.7 2.2-0.7 4.8 1.8 7.2 1.8 2.3 0 5-2.5 7.2-1.8 2.1 0.7 2.9 4.3 4.8 5.7 1.8 1.3 5.4 0.9 6.8 2.8 1.3 1.8-0.1 5.1 0.6 7.4 0.7 2.1 3.8 3.9 3.8 6.3z"/>
		<path id="Layer" fill-rule="evenodd" class="s1" d="m31.9 13.8c0.4 0 0.7 0.3 0.7 0.7v6.9c0 2.8-0.9 5.5-2.5 7.7-1.7 2.3-3.9 3.9-6.6 4.8q-0.1 0-0.2 0-0.1 0-0.2 0c-2.7-0.9-5-2.5-6.6-4.8-1.7-2.2-2.5-4.9-2.5-7.7v-6.9c0-0.4 0.3-0.7 0.7-0.7 1.9 0 3.7-1 4.6-2.8 0.2-0.2 0.4-0.3 0.6-0.3h6.7c0.3 0 0.5 0.1 0.6 0.3 0.9 1.7 2.7 2.8 4.7 2.8zm-2.1 2.9q0 0 0 0 0-0.1 0-0.2-0.1-0.3-0.4-0.4c-1.5-0.5-2.8-1.3-3.7-2.5-0.1-0.1-0.3-0.3-0.6-0.3h-3.8q-0.3 0-0.5 0.3c-1 1.2-2.2 2-3.7 2.5-0.3 0.1-0.4 0.4-0.4 0.7v4.6c0 4.2 2.4 7.9 6.3 9.5q0.1 0.1 0.2 0.1 0.2 0 0.3-0.1c3.8-1.6 6.3-5.3 6.3-9.5 0 0 0-4.7 0-4.7zm-1.3 0.6v4.1c0 3.6-2.1 6.7-5.3 8.2-3.1-1.5-5.2-4.7-5.2-8.2v-4.1c1.4-0.6 2.7-1.4 3.7-2.6h3.1c1 1.2 2.3 2 3.7 2.6zm-1.6 3.3c0.3-0.3 0.3-0.7 0-1-0.3-0.2-0.7-0.2-1 0l-3.7 3.8-1.7-1.7c-0.2-0.2-0.7-0.2-0.9 0-0.3 0.3-0.3 0.7 0 1l2.1 2.1q0.2 0.2 0.5 0.2 0.3 0 0.5-0.2z"/>
	</g>
</svg>