<svg version="1.2" xmlns="http://www.w3.org/2000/svg" viewBox="0 0 47 45" width="150" height="144">
	<title>Asset 9-svg</title>
	<style>
		.s0 { fill: #edc1ab } 
		.s1 { fill: #8e1c1e } 
	</style>
	<g id="Layer_1-2">
		<path id="Layer" class="s0" d="m46.5 22.3c0 2.3-3.1 4.1-3.8 6.3-0.7 2.1 0.7 5.5-0.6 7.3-1.3 1.9-5 1.5-6.8 2.9-1.9 1.3-2.6 4.9-4.8 5.6-2.2 0.7-4.9-1.7-7.2-1.7-2.4 0-5.1 2.4-7.2 1.7-2.2-0.7-3-4.3-4.8-5.6-1.8-1.4-5.5-1-6.8-2.9-1.4-1.8 0.1-5.1-0.6-7.3-0.7-2.2-3.9-4-3.9-6.3 0-2.4 3.2-4.2 3.9-6.3 0.7-2.2-0.8-5.6 0.6-7.4 1.3-1.9 5-1.5 6.8-2.8 1.9-1.4 2.6-5 4.8-5.7 2.2-0.7 4.8 1.8 7.2 1.8 2.3 0 5-2.5 7.2-1.8 2.1 0.7 2.9 4.3 4.8 5.7 1.8 1.3 5.4 0.9 6.8 2.8 1.3 1.8-0.1 5.1 0.6 7.4 0.7 2.1 3.8 3.9 3.8 6.3z"/>
		<g id="return">
			<path id="Layer" fill-rule="evenodd" class="s1" d="m24.2 26.6c0 2.3 1.1 4.4 2.8 5.7h-8.6c-1.5 0-2.8-1.3-2.8-2.9v-14.3h15.7v4.3c-3.9 0-7.1 3.2-7.1 7.2zm2.8-12.2v0.7h-1.4v-0.7c0-1.2-1-2.2-2.1-2.2-1.2 0-2.2 1-2.2 2.2v0.7h-1.4v-0.7c0-2 1.6-3.6 3.6-3.6 1.9 0 3.5 1.6 3.5 3.6zm10.1 12.2c0 3.1-2.6 5.7-5.8 5.7-3.1 0-5.7-2.6-5.7-5.7 0-3.2 2.6-5.8 5.7-5.8 3.2 0 5.8 2.6 5.8 5.8zm-2.5 0.7c0-1.6-1.3-2.9-2.9-2.9h-1.1l0.7-0.7-1-1-2.5 2.4 2.5 2.5 1-1-0.7-0.7h1.1c0.8 0 1.4 0.6 1.4 1.4 0 0.8-0.6 1.4-1.4 1.4h-2.1v1.5h2.1c1.6-0.1 2.9-1.3 2.9-2.9z"/>
		</g>
	</g>
</svg>